<?xml version="1.0" ?><svg data-name="Layer 1" id="Layer_1" viewBox="0 0 128 128" xmlns="http://www.w3.org/2000/svg"><title/><g><path d="M26.16049,115.50741c8.47011,4.08789,10.85743-2.32192,20.43945.327,6.37711,1.766,7.816,5.10169,10.69392,8.372,1.92948,2.19111,2.58355,2.19111,3.33572,3.04139C61.9704,127.50945,62.49365,128,63.998,128c1.66786,0,1.99489-.62136,3.46653-.75217l3.23761-3.00869c2.91058-3.303,4.25141-6.57333,10.72662-8.4047,9.38579-2.649,12.558,3.82626,20.40675-.327,6.40981-6.01737-.29433-10.95554,7.09658-20.07971,6.05008-7.489,13.01584-4.48033,15.7302-11.31528,2.77976-7.03117-5.75575-9.77823-5.91926-19.9162-.16352-10.36689,8.56822-12.95043,6.01737-20.047-1.27542-3.49923-3.95708-4.70925-7.3909-5.952-5.00358-1.79867-8.53551-4.34951-10.85743-9.32039a17.85544,17.85544,0,0,1-1.40623-5.42872c-.35973-4.90547.09811-12.002-7.61983-12.5907-2.48544-.19622-3.98978.556-5.82115,1.0138C72.92595,16.54778,73.22028.0327,63.998,0c-3.859,0-6.2463,3.07409-8.045,5.33061C43.82017,20.40675,33.51869,6.57333,26.09509,12.5907c-5.85386,4.70925.06541,11.21717-7.03117,19.9816-6.14819,7.58712-13.01584,4.48033-15.7302,11.31528-2.81247,7.06387,5.85386,9.909,5.91926,19.9162.0327,10.75933-8.4047,12.49259-6.01737,20.047A8.3742,8.3742,0,0,0,5.95,87.61165a18.7228,18.7228,0,0,0,4.67655,2.19111c3.79356,1.37353,5.91926,2.42,8.27389,5.42872C26.78185,105.20593,19.58716,109.29382,26.16049,115.50741Z" style="fill: #ebbb63"/><circle cx="63.998" cy="64" r="47.2233" style="fill: #fcdea6"/><path d="M96.99547,44.21463,54.58414,85.593l-23.649-22.96648-1.27537,1.2427a2.28007,2.28007,0,0,0-.03274,3.23758l21.5514,21.51866.16351.13083c2.976,2.61623,2.55081,2.58356,6.05006-.09809l40.91161-39.9305C100.06954,46.99437,98.20549,45.39191,96.99547,44.21463Z" style="fill: #333;fill-opacity: 0.10196100175380707"/><path d="M63.998,16.7767a47.91858,47.91858,0,0,1,8.99336.883c-.78487-.0327-1.56975-.06541-2.35462-.06541a47.21653,47.21653,0,0,0-8.99336,93.56362A47.21988,47.21988,0,0,1,63.998,16.7767Z" style="fill: #f7d391"/><path d="M97.813,44.90133l-7.09658-6.96575a2.29156,2.29156,0,0,0-3.17216.03274L54.37634,70.4151,40.19016,56.511a2.26052,2.26052,0,0,0-3.17223-.03274L29.92134,63.444a2.19171,2.19171,0,0,0,0,3.13956l22.66327,22.467a2.26058,2.26058,0,0,0,3.17223.03267l42.08889-41.0097A2.23054,2.23054,0,0,0,97.813,44.90133Z" style="fill: #fff"/><path d="M97.813,44.90133l-1.2427-1.21L54.51654,84.67889,31.19679,62.2013,29.92134,63.444a2.19171,2.19171,0,0,0,0,3.13956L52.6827,89.14867a2.1849,2.1849,0,0,0,3.10682-.09809l42.05622-40.977A2.23054,2.23054,0,0,0,97.813,44.90133Z" style="fill: #f7f7f7"/></g></svg>