<?xml version="1.0" ?><svg viewBox="0 0 128 128" xmlns="http://www.w3.org/2000/svg"><title/><g style="isolation: isolate"><g data-name="Layer 1" id="Layer_1"><g><path d="M128,64c0,4.59107-8.401,8.17679-9.37731,12.47229-1.00814,4.43535,4.98122,11.30371,3.05072,15.30531-1.96231,4.06754-11.08551,3.65379-13.87527,7.14762-2.80333,3.51082-.38156,12.31119-3.8923,15.11458-3.49372,2.7898-11.53178-1.5183-15.59918.444-4.00131,1.93044-5.62995,10.91893-10.065,11.92707-4.29536.97639-9.65079-6.39371-14.24171-6.39371s-9.94633,7.37011-14.24169,6.39372c-4.4352-1.00818-6.064-9.99674-10.06545-11.9273-4.0674-1.96237-12.10553,2.34563-15.59924-.44422-3.51071-2.80343-1.08885-11.60377-3.89214-15.11462C17.41178,95.43092,8.28858,95.8446,6.32632,91.77706c-1.93037-4.00144,4.05909-10.8696,3.051-15.30475C8.401,72.1768,0,68.59108,0,64s8.401-8.17679,9.37731-12.47229C10.38545,47.09237,4.39609,40.224,6.32658,36.2224c1.96231-4.06754,11.08551-3.65379,13.87527-7.14762,2.80333-3.51082.38156-12.31119,3.8923-15.11458,3.49372-2.7898,11.53178,1.5183,15.59918-.444,4.00131-1.93044,5.62995-10.91893,10.065-11.92707C54.05365.61271,59.40908,7.98282,64,7.98282S73.94633.61271,78.24169,1.5891c4.4352,1.00818,6.064,9.99674,10.06545,11.9273,4.0674,1.96237,12.10553-2.34563,15.59924.44422,3.51071,2.80343,1.08885,11.60377,3.89214,15.11462,2.78971,3.49383,11.91291,3.08016,13.87516,7.14769,1.93037,4.00144-4.05909,10.8696-3.051,15.30475C119.599,55.8232,128,59.40892,128,64Z" style="fill: #638c49"/><circle cx="64" cy="62" r="43.5" style="fill: #231f20;opacity: 0.07;mix-blend-mode: darken"/><circle cx="64" cy="64" r="43.5" style="fill: #73a353"/><path d="M87.96121,43.52261l-1.71673-1.44982a4.27184,4.27184,0,0,0-6.02013.50756L57.8722,69.04932,47.00107,59.86857a4.27185,4.27185,0,0,0-6.02013.50766l-1.44975,1.71684a4.2725,4.2725,0,0,0,.50764,6.02066L54.11831,80.00395l.0063.00589,1.81434,1.53226.0073.00556.74058.62543a3.23031,3.23031,0,0,0,4.55233-.3839L64.033,78.48069l.00817-.01072L88.46875,49.54329A4.27249,4.27249,0,0,0,87.96121,43.52261Z" style="fill: #231f20;opacity: 0.07;mix-blend-mode: darken"/><path d="M87.96121,45.52261l-1.71673-1.44982a4.27184,4.27184,0,0,0-6.02013.50756L57.8722,71.04932,47.00107,61.86857a4.27185,4.27185,0,0,0-6.02013.50766l-1.44975,1.71684a4.2725,4.2725,0,0,0,.50764,6.02066L54.11831,82.00395l.0063.00589,1.81434,1.53226.0073.00556.74058.62543a3.23031,3.23031,0,0,0,4.55233-.3839L64.033,80.48069l.00817-.01072L88.46875,51.54329A4.27249,4.27249,0,0,0,87.96121,45.52261Z" style="fill: #fff"/></g></g></g></svg>