<svg enable-background="new 0 0 148.8 47.1" viewBox="0 0 148.8 47.1" xmlns="http://www.w3.org/2000/svg"><g fill="#e52146"><path d="m21.8 13.5c-1-1.1-2.2-1.9-3.6-2.5s-2.9-.9-4.5-.9c-.9 0-1.8.1-2.6.4-.9.3-1.7.7-2.6 1.3l.7-11.8h-6.7l-2.5 37h6.7l1-15.1c0-.7.2-1.3.5-2 .3-.6.7-1.2 1.2-1.6.5-.5 1.1-.8 1.7-1.1s1.3-.4 2-.4 1.3.1 1.9.4 1.1.6 1.5 1.1.8 1 1 1.6.3 1.3.3 2l-.9 15.1h6.8l1-15.1c.1-1.6-.1-3.2-.6-4.6-.6-1.5-1.3-2.7-2.3-3.8z"/><path d="m49.6 13.4c-1.1-1.2-2.5-2.2-4.1-2.8-1.6-.7-3.3-1-5.2-1s-3.6.4-5.3 1.1-3.2 1.7-4.5 2.9-2.4 2.7-3.2 4.4-1.3 3.6-1.4 5.6.1 3.8.7 5.5 1.5 3.2 2.6 4.4 2.5 2.2 4.1 2.9 3.3 1.1 5.2 1.1 3.7-.4 5.3-1.1c1.7-.7 3.2-1.7 4.5-2.9s2.4-2.7 3.2-4.4 1.3-3.5 1.4-5.5c.1-2.1-.1-4-.7-5.7-.6-1.8-1.4-3.3-2.6-4.5zm-3.5 10.1c-.1 1.1-.3 2.1-.7 2.9-.4.9-.9 1.6-1.6 2.3-.7.6-1.4 1.1-2.2 1.5-.8.3-1.7.5-2.6.5s-1.8-.2-2.6-.6-1.5-.9-2-1.5c-.6-.6-1-1.4-1.3-2.3s-.4-1.8-.3-2.8c.1-1.1.3-2.1.7-3s.9-1.6 1.6-2.3c.6-.6 1.4-1.1 2.2-1.5.8-.3 1.7-.5 2.6-.5s1.8.2 2.6.5 1.5.8 2 1.5c.6.6 1 1.4 1.3 2.3.3 1 .4 1.9.3 3z"/><path d="m77.9 13.4c-1.1-1.2-2.5-2.2-4.1-2.8-1.6-.7-3.3-1-5.2-1s-3.6.4-5.3 1.1-3.2 1.7-4.5 2.9-2.4 2.7-3.2 4.4-1.3 3.6-1.4 5.6.1 3.8.7 5.5 1.5 3.2 2.6 4.4 2.5 2.2 4.1 2.9 3.3 1.1 5.2 1.1 3.7-.4 5.3-1.1c1.7-.7 3.2-1.7 4.5-2.9s2.4-2.7 3.2-4.4 1.3-3.5 1.4-5.5c.1-2.1-.1-4-.7-5.7-.6-1.8-1.4-3.3-2.6-4.5zm-3.5 10.1c-.1 1.1-.3 2.1-.7 2.9-.4.9-.9 1.6-1.6 2.3-.7.6-1.4 1.1-2.2 1.5-.8.3-1.7.5-2.6.5s-1.8-.2-2.6-.6-1.5-.9-2-1.5c-.6-.6-1-1.4-1.3-2.3s-.4-1.8-.3-2.8c.1-1.1.3-2.1.7-3s.9-1.6 1.6-2.3c.6-.6 1.4-1.1 2.2-1.5.8-.3 1.7-.5 2.6-.5s1.8.2 2.6.5 1.5.8 2 1.5c.6.6 1 1.4 1.3 2.3s.4 1.9.3 3z"/><path d="m106.7 13.4c-1.1-1.2-2.5-2.2-4.1-2.8-1.6-.7-3.3-1-5.2-1-.9 0-1.7.1-2.6.3s-1.7.5-2.5.9-1.6.8-2.3 1.3c-.8.5-1.5 1.1-2.1 1.6l-2.5-3.2h-1.6l-2.4 36.5h6.8l.8-11.9 1.5.9c.5.3 1.1.5 1.6.8.6.2 1.1.4 1.7.5s1.2.2 1.8.2c1.9 0 3.6-.3 5.3-1 1.7-.6 3.2-1.6 4.5-2.8s2.4-2.7 3.2-4.4 1.3-3.7 1.5-5.9c.1-2.1-.1-4-.7-5.7-.7-1.6-1.6-3.1-2.7-4.3zm-3.5 10.1c-.1 1.1-.3 2.1-.7 2.9-.4.9-.9 1.6-1.6 2.3-.7.6-1.4 1.1-2.2 1.5-.8.3-1.7.5-2.7.5-.9 0-1.8-.2-2.6-.5s-1.5-.8-2-1.5c-.6-.6-1-1.4-1.3-2.3s-.4-1.9-.3-2.9c.1-1.1.3-2.1.7-3s.9-1.6 1.6-2.3c.7-.6 1.4-1.1 2.2-1.4s1.7-.5 2.6-.5 1.8.2 2.6.5 1.5.8 2.1 1.4 1 1.4 1.3 2.3.4 1.9.3 3z"/><path d="m128.1 25.2c0 .7-.2 1.4-.5 2.1s-.7 1.3-1.2 1.8-1.1 1-1.7 1.3-1.3.5-2 .5-1.4-.1-2-.3-1.1-.6-1.5-1.1-.8-1.1-1-1.8-.3-1.5-.2-2.5l1-14.6h-6.7l-1 14.6c-.1 1.9.1 3.6.6 5.1s1.3 2.8 2.3 3.9 2.2 1.9 3.6 2.5 2.9.9 4.5.9c.8 0 1.6-.2 2.3-.5s1.6-.6 2.3-.9c-.3.6-.6 1.2-1.1 1.7-.4.5-.9 1-1.5 1.3-.5.4-1.1.7-1.8.9-.6.2-1.3.3-1.9.3h-3.8l-.5 6.8h3.5c1.9 0 3.6-.4 5.3-1.1s3.2-1.7 4.5-2.9 2.4-2.6 3.2-4.3 1.3-3.4 1.4-5.2l1.5-23.1h-6.8z"/><path d="m148.7 4.1c-.1-.5-.2-.9-.4-1.3s-.5-.8-.8-1.2-.7-.6-1.1-.9c-.4-.2-.8-.4-1.3-.5-.4-.1-.9-.2-1.4-.2s-.9.1-1.4.2-.9.3-1.3.5-.8.5-1.2.9-.7.7-1 1.2c-.3.4-.5.9-.6 1.3-.1.5-.2.9-.3 1.4 0 .5 0 .9.1 1.4s.2.9.4 1.3.5.8.8 1.2.7.7 1.1.9.8.4 1.3.5c.4.1.9.2 1.4.2s.9-.1 1.4-.2.9-.3 1.3-.5.8-.5 1.2-.9.7-.7 1-1.2c.3-.4.5-.9.6-1.3.1-.5.2-.9.3-1.4s0-1-.1-1.4zm-2.3 2.6c-.2.4-.5.8-.8 1.1s-.7.6-1.2.7c-.4.2-.8.2-1.3.2-.4 0-.8-.1-1.3-.2-.4-.2-.8-.4-1.1-.7s-.5-.7-.7-1.1c0-.4 0-.8 0-1.2s.1-.9.3-1.3.5-.8.8-1.1.7-.6 1.2-.7c.4-.2.9-.2 1.3-.2s.8.1 1.2.2c.4.2.8.4 1.1.7s.5.7.7 1.1c.1.4.2.8.2 1.3-.1.4-.2.8-.4 1.2z"/></g></svg>